<?xml version="1.0" encoding="UTF-8" standalone="no"?>
<!DOCTYPE svg PUBLIC "-//W3C//DTD SVG 1.1//EN" "http://www.w3.org/Graphics/SVG/1.1/DTD/svg11.dtd">
<svg width="100%" height="100%" viewBox="0 0 3840 2160" version="1.1" xmlns="http://www.w3.org/2000/svg" xmlns:xlink="http://www.w3.org/1999/xlink" xml:space="preserve" xmlns:serif="http://www.serif.com/" style="fill-rule:evenodd;clip-rule:evenodd;stroke-linejoin:round;stroke-miterlimit:2;">
    <g transform="matrix(11.8595,0,0,11.8597,-2776.3,-3616.4)">
        <g>
            <path d="M257.617,366.589L245.601,366.589L266.945,419.698C267.506,421.154 268.191,422.302 269.004,423.143C269.816,423.983 270.67,424.627 271.567,425.075C272.463,425.524 273.331,425.803 274.172,425.916C275.012,426.028 275.768,426.083 276.441,426.083C277.954,426.083 279.242,425.888 280.306,425.496C281.371,425.104 282.281,424.585 283.037,423.94C283.793,423.296 284.396,422.597 284.843,421.841C285.292,421.084 285.656,420.37 285.936,419.698L307.281,366.589C316.573,346.456 336.264,333.137 358.408,332.006C380.554,330.876 401.499,342.121 412.793,361.203C402.017,337.69 378.048,323.073 352.211,324.257C326.375,325.441 303.843,342.19 295.264,366.589L277.702,414.067C277.589,414.292 277.449,414.557 277.281,414.865C277.113,415.174 276.833,415.328 276.441,415.328C276.049,415.328 275.768,415.174 275.6,414.865C275.433,414.557 275.293,414.292 275.18,414.067L257.617,366.589Z" style="fill:rgb(255, 255, 255)"/>
            <rect x="314.238" y="366.589" width="11.092" height="58.822" style="fill:rgb(255, 255, 255);"/>
            <path d="M366.666,425.411L366.666,375.412L389.691,375.412L389.691,366.589L332.633,366.589L332.633,375.412L355.574,375.412L355.574,425.411L366.666,425.411Z" style="fill:rgb(255, 255, 255);"/>
            <path style="fill:rgb(255, 255, 255);" d="M445.496,366.589L433.48,366.589L454.824,419.698C455.384,421.154 456.07,422.302 456.883,423.143C457.695,423.983 458.55,424.627 459.446,425.075C460.342,425.524 461.211,425.803 462.051,425.916C462.891,426.028 463.647,426.083 464.32,426.083C465.833,426.083 467.121,425.888 468.185,425.496C469.25,425.104 470.16,424.585 470.916,423.94C471.672,423.296 472.275,422.597 472.723,421.841C473.171,421.084 473.535,420.37 473.815,419.698L495.16,366.589L483.143,366.589L465.58,414.067C465.468,414.292 465.328,414.557 465.16,414.865C464.992,415.174 464.712,415.328 464.32,415.328C463.928,415.328 463.647,415.174 463.479,414.865C463.312,414.557 463.172,414.292 463.06,414.067L445.496,366.589Z"/>
            <path style="fill:rgb(255, 255, 255);" d="M546.398,425.411L546.398,416.588L514.971,416.588C514.074,416.588 513.304,416.547 512.659,416.462C512.015,416.378 511.525,416.168 511.189,415.832C510.629,415.383 510.349,414.627 510.349,413.563L510.349,399.782L545.222,399.782L545.222,390.959L510.349,390.959L510.349,379.109C510.349,378.662 510.39,378.185 510.475,377.681C510.559,377.177 510.825,376.701 511.273,376.253C511.721,375.861 512.211,375.623 512.744,375.538C513.276,375.454 513.794,375.412 514.298,375.412L546.063,375.412L546.063,366.589L508.332,366.589C507.211,366.589 505.993,366.701 504.676,366.926C503.36,367.15 502.226,367.794 501.273,368.858C500.657,369.586 500.167,370.497 499.802,371.589C499.438,372.681 499.257,373.815 499.257,374.993L499.257,416.672C499.257,417.793 499.369,418.983 499.593,420.243C499.816,421.504 500.433,422.611 501.441,423.562C502.394,424.515 503.43,425.061 504.551,425.201C505.671,425.341 506.875,425.411 508.164,425.411L546.398,425.411Z"/>
            <path style="fill:rgb(255, 255, 255);" d="M381.175,425.411L402.518,372.303C403.079,370.847 403.765,369.699 404.578,368.858C405.39,368.017 406.244,367.373 407.14,366.926C408.037,366.477 408.905,366.197 409.746,366.085C410.585,365.973 411.341,365.917 412.014,365.917C413.527,365.917 414.815,366.113 415.879,366.505C416.944,366.897 417.854,367.416 418.611,368.06C419.367,368.704 419.969,369.404 420.417,370.16C420.866,370.916 421.23,371.631 421.51,372.303L442.854,425.411L430.837,425.411L413.275,377.933C413.163,377.709 413.023,377.443 412.854,377.135C412.686,376.827 412.406,376.673 412.014,376.673C411.622,376.673 411.341,376.827 411.174,377.135C411.006,377.443 410.866,377.709 410.754,377.933L393.191,425.411C384.612,449.811 362.08,466.559 336.243,467.744C310.406,468.928 286.437,454.31 275.662,430.798C286.956,449.879 307.9,461.124 330.046,459.994C352.191,458.864 371.882,445.544 381.173,425.411L381.175,425.411Z"/>
        </g>
    </g>
</svg>
