<svg xmlns="http://www.w3.org/2000/svg" viewBox="0 0 155.29 98.43" fill="#fff"><g id="Vrstva_2" data-name="Vrstva 2"><g id="Vrstva_1-2" data-name="Vrstva 1"><path d="M96.67,98.36c-14.17,0-28.35-.13-42.52.07a17.61,17.61,0,0,1-13.09-5C29.32,82.28,17.42,71.33,5.66,60.22c-7.56-7.15-7.54-14.92,0-22C17.56,27,29.57,15.9,41.46,4.69A16.13,16.13,0,0,1,53.14,0c29.18.09,58.37,0,87.55.06,9.25,0,14.55,5.36,14.57,14.64q.08,34.5,0,69c0,9.32-5.29,14.59-14.55,14.63C126,98.41,111.35,98.36,96.67,98.36ZM96.21,91q21.26,0,42.52,0c7.21,0,9-1.72,9-8.75q0-33,0-66c0-7.15-1.71-8.89-8.83-8.9-28,0-56-.11-84,.15A14.67,14.67,0,0,0,46,11C34.35,21.45,23,32.27,11.57,43c-5.2,4.86-5.24,7.54-.1,12.35C22.9,66,34.23,76.87,45.93,87.29a15.7,15.7,0,0,0,9.26,3.58C68.85,91.25,82.53,91,96.21,91Z"/><rect x="98.78" y="17.29" width="5.53" height="64.11" rx="2.76" transform="translate(-5.15 86.25) rotate(-45)"/><rect x="98.78" y="17.29" width="5.53" height="64.11" rx="2.76" transform="translate(64.63 -57.35) rotate(45)"/></g></g></svg>