<svg
  xmlns="http://www.w3.org/2000/svg"
  style="width: 24px; height: 24px; vertical-align: middle; fill: currentColor; overflow: hidden;"
  viewBox="0 0 870.21 527.45">
  <g id="Vrstva_2" data-name="Vrstva 2">
    <g id="Vrstva_1-2" data-name="Vrstva 1">
      <path d="M157,440.25l34.5-34.5a448,448,0,0,1-136.25-142C135.78,130.29,280.09,47.93,435.12,47.93a437.19,437.19,0,0,1,102,12.27l39-39A486.07,486.07,0,0,0,435.12,0C258.29,0,94.11,96.55,6.62,252L0,263.74l6.62,11.77A495.9,495.9,0,0,0,157,440.25ZM863.6,252A495.86,495.86,0,0,0,713.41,87.32L678.93,121.8A447.75,447.75,0,0,1,815,263.71C734.49,397.17,590.17,479.5,435.12,479.5a438.38,438.38,0,0,1-101.68-12.2l-39.06,39.05a486.12,486.12,0,0,0,140.74,21.1c176.85,0,341-96.55,428.48-252l6.61-11.75L863.6,252Z"/>
      <circle cx="433.37" cy="265.6" r="148.93"/>
      <path d="M333.44,467.3a437.23,437.23,0,0,1-141.92-61.55L157,440.25c19.88,11.44,41.46,23,64.73,34.25,25.31,12.28,49.64,22.8,72.63,31.85"/>
      <path d="M713.41,87.32s-61-45.94-137.29-66.15l-39,39s102.75,32.51,141.84,61.6Z"/>
    </g>
  </g>
</svg>
